<?xml version="1.0" encoding="UTF-8"?>
<!DOCTYPE svg PUBLIC "-//W3C//DTD SVG 1.1//EN" "http://www.w3.org/Graphics/SVG/1.1/DTD/svg11.dtd">
<svg version="1.1" xmlns="http://www.w3.org/2000/svg" xmlns:xlink="http://www.w3.org/1999/xlink" x="0" y="0" width="228" height="228" viewBox="0, 0, 228, 228">
  <defs>
    <linearGradient id="Gradient_1" gradientUnits="userSpaceOnUse" x1="140.11" y1="165.911" x2="358.38" y2="110.029">
      <stop offset="0" stop-color="#9F1635"/>
      <stop offset="0.125" stop-color="#95193E"/>
      <stop offset="0.25" stop-color="#8A1C46"/>
      <stop offset="0.375" stop-color="#801E4F"/>
      <stop offset="0.5" stop-color="#752157"/>
      <stop offset="0.625" stop-color="#6A2460"/>
      <stop offset="0.75" stop-color="#5F2769"/>
      <stop offset="0.875" stop-color="#542A71"/>
      <stop offset="1" stop-color="#4A2C79"/>
    </linearGradient>
    <linearGradient id="Gradient_2" gradientUnits="userSpaceOnUse" x1="33.795" y1="39.606" x2="33.676" y2="166.456">
      <stop offset="0" stop-color="#4A2C79"/>
      <stop offset="0.125" stop-color="#552971"/>
      <stop offset="0.25" stop-color="#5F2669"/>
      <stop offset="0.375" stop-color="#6A2460"/>
      <stop offset="0.5" stop-color="#752157"/>
      <stop offset="0.625" stop-color="#801E4F"/>
      <stop offset="0.75" stop-color="#8B1B46"/>
      <stop offset="0.875" stop-color="#95193E"/>
      <stop offset="1" stop-color="#9F1635"/>
    </linearGradient>
    <linearGradient id="Gradient_3" gradientUnits="userSpaceOnUse" x1="142.704" y1="-2.613" x2="156.99" y2="32.741">
      <stop offset="0" stop-color="#4A2C79"/>
      <stop offset="0.125" stop-color="#552971"/>
      <stop offset="0.25" stop-color="#5F2669"/>
      <stop offset="0.375" stop-color="#6A2460"/>
      <stop offset="0.5" stop-color="#752157"/>
      <stop offset="0.625" stop-color="#801E4F"/>
      <stop offset="0.75" stop-color="#8B1B46"/>
      <stop offset="0.875" stop-color="#95193E"/>
      <stop offset="1" stop-color="#9F1635"/>
    </linearGradient>
    <linearGradient id="Gradient_4" gradientUnits="userSpaceOnUse" x1="112.89" y1="1.984" x2="126.451" y2="35.544">
      <stop offset="0" stop-color="#4A2C79"/>
      <stop offset="0.125" stop-color="#552971"/>
      <stop offset="0.25" stop-color="#5F2669"/>
      <stop offset="0.375" stop-color="#6A2460"/>
      <stop offset="0.5" stop-color="#752157"/>
      <stop offset="0.625" stop-color="#801E4F"/>
      <stop offset="0.75" stop-color="#8B1B46"/>
      <stop offset="0.875" stop-color="#95193E"/>
      <stop offset="1" stop-color="#9F1635"/>
    </linearGradient>
    <linearGradient id="Gradient_5" gradientUnits="userSpaceOnUse" x1="79.906" y1="13.831" x2="102.267" y2="42.449">
      <stop offset="0" stop-color="#4A2C79"/>
      <stop offset="0.125" stop-color="#552971"/>
      <stop offset="0.25" stop-color="#5F2669"/>
      <stop offset="0.375" stop-color="#6A2460"/>
      <stop offset="0.5" stop-color="#752157"/>
      <stop offset="0.625" stop-color="#801E4F"/>
      <stop offset="0.75" stop-color="#8B1B46"/>
      <stop offset="0.875" stop-color="#95193E"/>
      <stop offset="1" stop-color="#9F1635"/>
    </linearGradient>
    <linearGradient id="Gradient_6" gradientUnits="userSpaceOnUse" x1="54.539" y1="29.696" x2="83.35" y2="52.203">
      <stop offset="0" stop-color="#4A2C79"/>
      <stop offset="0.125" stop-color="#552971"/>
      <stop offset="0.25" stop-color="#5F2669"/>
      <stop offset="0.375" stop-color="#6A2460"/>
      <stop offset="0.5" stop-color="#752157"/>
      <stop offset="0.625" stop-color="#801E4F"/>
      <stop offset="0.75" stop-color="#8B1B46"/>
      <stop offset="0.875" stop-color="#95193E"/>
      <stop offset="1" stop-color="#9F1635"/>
    </linearGradient>
  </defs>
  <g id="Layer_1">
    <path d="M129.58,52.536 C130.805,53.761 130.805,55.747 129.58,56.972 C128.355,58.197 126.369,58.197 125.144,56.972 C123.919,55.747 123.919,53.761 125.144,52.536 C126.369,51.311 128.355,51.311 129.58,52.536" fill="#9F1635"/>
    <path d="M112.185,57.258 C113.41,58.483 113.41,60.469 112.185,61.694 C110.96,62.919 108.974,62.919 107.749,61.694 C106.524,60.469 106.524,58.483 107.749,57.258 C108.974,56.033 110.96,56.033 112.185,57.258" fill="#9F1635"/>
    <path d="M96.435,65.532 C97.66,66.757 97.66,68.743 96.435,69.968 C95.21,71.193 93.224,71.193 91.999,69.968 C90.774,68.743 90.774,66.757 91.999,65.532 C93.224,64.307 95.21,64.307 96.435,65.532" fill="#9F1635"/>
    <path d="M82.342,76.282 C83.567,77.507 83.567,79.493 82.342,80.718 C81.117,81.943 79.131,81.943 77.905,80.718 C76.681,79.493 76.681,77.507 77.905,76.282 C79.131,75.057 81.117,75.057 82.342,76.282" fill="#9F1635"/>
    <path d="M70.111,89.782 C71.336,91.007 71.336,92.993 70.111,94.218 C68.886,95.443 66.9,95.443 65.675,94.218 C64.45,92.993 64.45,91.007 65.675,89.782 C66.9,88.557 68.886,88.557 70.111,89.782" fill="#9F1635"/>
    <path d="M61.679,105.94 C62.904,107.165 62.904,109.151 61.679,110.376 C60.454,111.601 58.468,111.601 57.243,110.376 C56.018,109.151 56.018,107.165 57.243,105.94 C58.468,104.715 60.454,104.715 61.679,105.94" fill="#9F1635"/>
    <path d="M56.406,122.94 C57.631,124.165 57.631,126.151 56.406,127.376 C55.181,128.601 53.195,128.601 51.97,127.376 C50.745,126.151 50.745,124.165 51.97,122.94 C53.195,121.715 55.181,121.715 56.406,122.94" fill="#9F1635"/>
    <path d="M54.406,140.198 C55.631,141.423 55.631,143.409 54.406,144.634 C53.181,145.859 51.195,145.859 49.97,144.634 C48.745,143.409 48.745,141.423 49.97,140.198 C51.195,138.973 53.181,138.973 54.406,140.198" fill="#9F1635"/>
    <path d="M159.153,47.676 C163.062,51.585 163.062,57.923 159.153,61.832 C155.244,65.741 148.906,65.741 144.997,61.832 C141.088,57.923 141.088,51.585 144.997,47.676 C148.906,43.767 155.244,43.767 159.153,47.676" fill="#9F1635"/>
   
    <path d="M7.713,100.431 C0.681,121.329 -1.583,143.537 1.087,165.425 L1.087,165.425 L31.399,155.088 C29.907,136.859 32.945,118.544 40.241,101.773 L40.241,101.773 C46.518,87.344 55.8,74.42 67.466,63.863 L67.466,63.863 L45.759,40.618 C28.417,57.178 15.36,77.705 7.713,100.431 z" fill="url(#Gradient_2)"/>
    <path d="M149.108,0 C145.249,0 141.392,0.182 137.551,0.548 L137.551,0.548 L138.905,31.654 C141.755,31.525 144.608,31.474 147.46,31.501 L147.46,31.501 C150.49,31.527 153.52,31.642 156.543,31.843 L156.543,31.843 L161.667,0.647 C157.578,0.224 153.47,0.008 149.359,0 L149.359,0 C149.275,0 149.192,0 149.108,0 z" fill="url(#Gradient_3)"/>
    <path d="M116.703,3.231 C112.265,4.19 107.883,5.391 103.575,6.826 L103.575,6.826 L110.522,37.342 C113.627,36.278 116.779,35.356 119.969,34.579 L119.969,34.579 C123.77,33.653 127.62,32.934 131.499,32.426 L131.499,32.426 L129.222,1.182 C125.018,1.653 120.839,2.337 116.703,3.231 z" fill="url(#Gradient_4)"/>
    <path d="M84.888,14.07 C81.086,15.853 77.365,17.805 73.737,19.919 L73.737,19.919 L87.89,48.26 C90.442,46.684 93.044,45.19 95.692,43.78 L95.692,43.78 C98.54,42.263 101.439,40.844 104.383,39.526 L104.383,39.526 L95.522,9.605 C91.918,10.948 88.371,12.438 84.888,14.07 z" fill="url(#Gradient_5)"/>
    <path d="M60.057,28.79 C57.083,30.922 54.171,33.138 51.325,35.436 L51.325,35.436 L72.003,60.172 C73.773,58.41 75.616,56.724 77.528,55.119 L77.528,55.119 C79.378,53.565 81.29,52.089 83.261,50.693 L83.261,50.693 L68.006,23.383 C65.312,25.119 62.661,26.921 60.057,28.79 z" fill="url(#Gradient_6)"/>
  </g>
</svg>
