<svg xmlns="http://www.w3.org/2000/svg" viewBox="0 0 1344.01 584.8"><defs><style>.cls-1{fill:#231f20;}</style></defs><title>ist-fr-2019-logo-export</title><g id="Layer_2" data-name="Layer 2"><g id="Layer_1-2" data-name="Layer 1"><path class="cls-1" d="M1344,295.3c-25.07,0-49,.07-73-.15-1.58,0-3.59-2-4.65-3.58q-28.49-42.22-56.67-84.64c-2.29-3.45-4.65-4.81-8.83-4.73-14.61.28-29.24.11-44.22.11v92.62h-63.81V4.34h5c44.66,0,89.32-.26,134,.11,25.83.21,50.11,6.34,71,22.59,18.92,14.76,28.49,34.76,31.5,58.1,2.19,17,1.24,33.92-4.26,50.3-8.64,25.74-26.43,42.94-50.89,53.78-1.82.8-3.65,1.58-5.87,2.54ZM1156.73,145.61h6.38c22.14-.1,44.34.83,66.39-.59,24.08-1.55,39.92-16.48,40.49-39.08.41-15.88-4.55-31.14-22.59-38.42a70.85,70.85,0,0,0-23.67-5c-21.11-.69-42.27-.28-63.41-.29-1.12,0-2.24.1-3.59.17Z"/><path class="cls-1" d="M360.25,37.15,327.44,84.87C315.85,78.61,304.85,72,293.32,66.59c-15.7-7.41-32.39-11.22-49.87-9.21A56,56,0,0,0,227.29,62c-8.4,3.76-13.11,10.71-13.39,20-.28,9.56,3.15,17.9,12.24,21.65a401.7,401.7,0,0,0,41.21,14.61c20.59,6,41.42,11.1,60.47,21.35,22.47,12.1,37.53,29.88,40.35,55.88,5.39,49.68-17.48,85.59-64.54,98.59-42.29,11.68-83.39,5.67-122.87-12.72A170.12,170.12,0,0,1,138.32,253l37.73-45.28c8,5.57,15.43,11.2,23.29,16.12,22.19,13.9,46.31,20.68,72.63,18.52,8-.66,15.75-2.63,22.52-7.27,14.64-10,14.39-30.68-.64-40.13-13-8.16-27.78-11.79-42.38-15.71C231.73,174,211.91,169,193.37,160c-29.29-14.11-43.17-37.41-43.26-69.83-.07-25,7.41-46.43,25.75-63.69a91.62,91.62,0,0,1,48.6-23.87c48.47-8,92.87,2.08,132.48,31.67C358,35.1,358.93,36,360.25,37.15Z"/><path class="cls-1" d="M819.7,294.94V4.42h221.17v58h-157v61.89h138.32v58.65H883.71v112Z"/><path class="cls-1" d="M550.56,295.06H486.34V63.56H397.87V4.62h241V63.08H550.56Z"/><path class="cls-1" d="M609.59,554.41l26.63-38.54c3.71,2.59,7.17,5.08,10.71,7.47,10.86,7.34,22.79,11.6,35.93,12,23.07.68,38.44-10.22,45.61-32.51,1.82-5.64,2.87-11.54,4.46-18.12a14.32,14.32,0,0,0-2.32,1c-26.74,22.17-84,16.47-107.41-9.12-12.06-13.2-17.7-28.76-18.55-46.2-2.52-51.28,34.51-81.73,76.57-85.16,19.35-1.58,38.42-.64,55.92,8.58,23.65,12.46,38,32.42,43.49,58.46,7.65,36.52,7.1,72.84-6.35,108-12.17,31.86-34.41,53.31-68.83,59.27-34.06,5.9-65.49-.9-92.9-22.94C611.65,555.94,610.72,555.27,609.59,554.41Zm86.22-96.91c2.16-.26,5.81-.54,9.41-1.15C720.34,453.8,730.35,444,733.14,429c2.56-13.64-3.51-28.13-15.31-34.75-14.23-8-29.32-8.65-44.11-2-21.21,9.49-25.65,39.6-8.47,55.29C673.43,455,683.59,457.16,695.81,457.5Z"/><path class="cls-1" d="M169.54,533.36v43.79H.24c0-9.82.51-19.63-.17-29.36-.53-7.58,2-12.32,8-17.09q40.16-32.19,79.46-65.43a154.84,154.84,0,0,0,19.74-20.41c7.9-9.67,10.34-21.1,7.4-33.35-2.74-11.41-11.56-18.86-23.27-20.25a41.94,41.94,0,0,0-33.79,10.31c-6.8,5.88-13.63,11.74-21.15,18.2L3.26,393.1c19.37-28.65,44.45-46.85,79.94-47.7,17.22-.41,33.93,1.7,49.3,10,22.66,12.27,33.47,31.87,34.93,57.23,1.67,28.84-10.59,51.4-32,69.35-19.11,16.06-39,31.26-58.48,46.84l-5.69,4.53Z"/><path class="cls-1" d="M86,295.08H22.54V4.75H86Z"/><path class="cls-1" d="M506.8,398.31l-40,9.76c-3.53-13.75-7-27.31-10.63-41.44,6.71-2.06,13.15-4.06,19.61-6,10-3,20.27-5.42,30-9.15,16.33-6.26,33.13-4,50.21-4.37V577H506.8Z"/><path class="cls-1" d="M251,518.34,226.36,543c-35.92-38.83-41-110.91,7.1-158.24s119.66-40.5,156.78-5.58l-24.63,24.66c-36.45-27.59-81.12-19.19-107,5.79S222.59,480.66,251,518.34Z"/><path class="cls-1" d="M379.46,417.38l24.63-24.56c35,37.51,40.09,107.28-2.18,153.74-44.15,48.52-117.68,49.46-161.57,10.8l24.94-24.74c39.54,29.24,84.27,16.17,107.46-6.81C395.77,503,409.39,457.78,379.46,417.38Z"/><path class="cls-1" d="M605.77,194.67q25.25-26.29,50.55-52.53a6.61,6.61,0,0,1,4.32-1.72q59.68-.13,119.38,0a16.2,16.2,0,0,1,2.32.51c-2.76,2.66-5.12,4.88-7.42,7.16-14.71,14.48-29.37,29-44.18,43.41a9.56,9.56,0,0,1-5.87,2.74c-39.3.16-78.59.12-117.89.11-.79,0-1.57-.1-2.36-.16Z"/><path class="cls-1" d="M315.24,461a6.9,6.9,0,0,1,7.22,7.12,7.19,7.19,0,0,1-6.88,7.06,7,7,0,0,1-7.16-7.21A6.76,6.76,0,0,1,315.24,461Z"/></g></g></svg>