<svg version="1.1" xmlns="http://www.w3.org/2000/svg" xmlns:xlink="http://www.w3.org/1999/xlink" x="0" y="0" viewBox="0 0 600 228" id="el_xwoPOh4G4"><style>@-webkit-keyframes el_1g1yROb9-3_ju9I88qf3_Animation{0%{-webkit-transform: translate(-80px, 20px);transform: translate(-80px, 20px);}100%{-webkit-transform: translate(-80px, 20px);transform: translate(-80px, 20px);}}@keyframes el_1g1yROb9-3_ju9I88qf3_Animation{0%{-webkit-transform: translate(-80px, 20px);transform: translate(-80px, 20px);}100%{-webkit-transform: translate(-80px, 20px);transform: translate(-80px, 20px);}}@-webkit-keyframes el_1g1yROb9-3_nF5EJRraw_Animation{0%{-webkit-transform: scale(0.75, 0.75);transform: scale(0.75, 0.75);}100%{-webkit-transform: scale(0.75, 0.75);transform: scale(0.75, 0.75);}}@keyframes el_1g1yROb9-3_nF5EJRraw_Animation{0%{-webkit-transform: scale(0.75, 0.75);transform: scale(0.75, 0.75);}100%{-webkit-transform: scale(0.75, 0.75);transform: scale(0.75, 0.75);}}@-webkit-keyframes el_JI2sJkhNqyy_Animation{0%{opacity: 0;}13.33%{opacity: 1;}100%{opacity: 1;}}@keyframes el_JI2sJkhNqyy_Animation{0%{opacity: 0;}13.33%{opacity: 1;}100%{opacity: 1;}}@-webkit-keyframes el_f7AaI0EPLP7_Animation{6.67%{opacity: 0;}20%{opacity: 1;}0%{opacity: 0;}100%{opacity: 1;}}@keyframes el_f7AaI0EPLP7_Animation{6.67%{opacity: 0;}20%{opacity: 1;}0%{opacity: 0;}100%{opacity: 1;}}@-webkit-keyframes el__bT-rzM2GOf_Animation{13.33%{opacity: 0;}26.67%{opacity: 1;}0%{opacity: 0;}100%{opacity: 1;}}@keyframes el__bT-rzM2GOf_Animation{13.33%{opacity: 0;}26.67%{opacity: 1;}0%{opacity: 0;}100%{opacity: 1;}}@-webkit-keyframes el__tXY_Cff3dC_Animation{20%{opacity: 0;}33.33%{opacity: 1;}0%{opacity: 0;}100%{opacity: 1;}}@keyframes el__tXY_Cff3dC_Animation{20%{opacity: 0;}33.33%{opacity: 1;}0%{opacity: 0;}100%{opacity: 1;}}@-webkit-keyframes el_qUn2frRoRGL_Animation{0%{opacity: 0;}6.67%{opacity: 1;}100%{opacity: 1;}}@keyframes el_qUn2frRoRGL_Animation{0%{opacity: 0;}6.67%{opacity: 1;}100%{opacity: 1;}}@-webkit-keyframes el_OX0THaLbpl_Animation{50%{opacity: 0;}66.67%{opacity: 1;}0%{opacity: 0;}100%{opacity: 1;}}@keyframes el_OX0THaLbpl_Animation{50%{opacity: 0;}66.67%{opacity: 1;}0%{opacity: 0;}100%{opacity: 1;}}@-webkit-keyframes el_9YLg6sEYEI_Animation{20%{opacity: 0;}33.33%{opacity: 0;}50%{opacity: 1;}0%{opacity: 0;}100%{opacity: 1;}}@keyframes el_9YLg6sEYEI_Animation{20%{opacity: 0;}33.33%{opacity: 0;}50%{opacity: 1;}0%{opacity: 0;}100%{opacity: 1;}}@-webkit-keyframes el_TY8T21uw2R_Animation{20%{opacity: 0;}33.33%{opacity: 1;}0%{opacity: 0;}100%{opacity: 1;}}@keyframes el_TY8T21uw2R_Animation{20%{opacity: 0;}33.33%{opacity: 1;}0%{opacity: 0;}100%{opacity: 1;}}@-webkit-keyframes el_KlT77BtY8n_Animation{0%{opacity: 0;}3.33%{opacity: 1;}100%{opacity: 1;}}@keyframes el_KlT77BtY8n_Animation{0%{opacity: 0;}3.33%{opacity: 1;}100%{opacity: 1;}}@-webkit-keyframes el_cqwyLvVehy_Animation{0%{opacity: 0;}5.56%{opacity: 1;}100%{opacity: 1;}}@keyframes el_cqwyLvVehy_Animation{0%{opacity: 0;}5.56%{opacity: 1;}100%{opacity: 1;}}@-webkit-keyframes el_JzT35TutBP_Animation{0%{opacity: 0;}6.67%{opacity: 1;}100%{opacity: 1;}}@keyframes el_JzT35TutBP_Animation{0%{opacity: 0;}6.67%{opacity: 1;}100%{opacity: 1;}}@-webkit-keyframes el_bT7Ii5DRy2_Animation{0%{opacity: 0;}6.67%{opacity: 1;}100%{opacity: 1;}}@keyframes el_bT7Ii5DRy2_Animation{0%{opacity: 0;}6.67%{opacity: 1;}100%{opacity: 1;}}@-webkit-keyframes el_wDvTOL6K1R_Animation{0%{opacity: 0;}10%{opacity: 1;}100%{opacity: 1;}}@keyframes el_wDvTOL6K1R_Animation{0%{opacity: 0;}10%{opacity: 1;}100%{opacity: 1;}}@-webkit-keyframes el_BI9uc8uJlC_Animation{2.22%{opacity: 0;}13.33%{opacity: 1;}0%{opacity: 0;}100%{opacity: 1;}}@keyframes el_BI9uc8uJlC_Animation{2.22%{opacity: 0;}13.33%{opacity: 1;}0%{opacity: 0;}100%{opacity: 1;}}@-webkit-keyframes el_FjlD-INBSp_Animation{6.67%{opacity: 0;}20%{opacity: 1;}0%{opacity: 0;}100%{opacity: 1;}}@keyframes el_FjlD-INBSp_Animation{6.67%{opacity: 0;}20%{opacity: 1;}0%{opacity: 0;}100%{opacity: 1;}}@-webkit-keyframes el_Xph8mWBLQk_Animation{13.33%{opacity: 0;}26.67%{opacity: 1;}0%{opacity: 0;}100%{opacity: 1;}}@keyframes el_Xph8mWBLQk_Animation{13.33%{opacity: 0;}26.67%{opacity: 1;}0%{opacity: 0;}100%{opacity: 1;}}#el_xwoPOh4G4 *{-webkit-animation-duration: 3s;animation-duration: 3s;-webkit-animation-timing-function: cubic-bezier(0, 0, 1, 1);animation-timing-function: cubic-bezier(0, 0, 1, 1);}#el_Xph8mWBLQk{fill: #9F1635;-webkit-animation-name: el_Xph8mWBLQk_Animation;animation-name: el_Xph8mWBLQk_Animation;opacity: 1;}#el_FjlD-INBSp{fill: #9F1635;-webkit-animation-name: el_FjlD-INBSp_Animation;animation-name: el_FjlD-INBSp_Animation;opacity: 1;}#el_BI9uc8uJlC{fill: #9F1635;-webkit-animation-name: el_BI9uc8uJlC_Animation;animation-name: el_BI9uc8uJlC_Animation;opacity: 1;}#el_wDvTOL6K1R{fill: #9F1635;-webkit-animation-name: el_wDvTOL6K1R_Animation;animation-name: el_wDvTOL6K1R_Animation;opacity: 1;}#el_bT7Ii5DRy2{fill: #9F1635;-webkit-animation-name: el_bT7Ii5DRy2_Animation;animation-name: el_bT7Ii5DRy2_Animation;opacity: 1;}#el_JzT35TutBP{fill: #9F1635;-webkit-animation-name: el_JzT35TutBP_Animation;animation-name: el_JzT35TutBP_Animation;opacity: 1;}#el_cqwyLvVehy{fill: #9F1635;-webkit-animation-name: el_cqwyLvVehy_Animation;animation-name: el_cqwyLvVehy_Animation;opacity: 1;}#el_KlT77BtY8n{fill: #9F1635;-webkit-animation-name: el_KlT77BtY8n_Animation;animation-name: el_KlT77BtY8n_Animation;opacity: 1;}#el_TY8T21uw2R{fill: #9F1635;-webkit-animation-name: el_TY8T21uw2R_Animation;animation-name: el_TY8T21uw2R_Animation;opacity: 1;}#el_9YLg6sEYEI{fill: url(#Gradient_1);-webkit-animation-name: el_9YLg6sEYEI_Animation;animation-name: el_9YLg6sEYEI_Animation;opacity: 1;}#el_LQcN6QLOWN{fill: #000000;}#el_PBBRFy4ayP{fill: #000000;}#el_dGh5k9tjE8{fill: #000000;}#el_Nm5J2ZmrHof{fill: #000000;}#el_lLJ-U61rGZP{fill: #000000;}#el_1yO4wf4F73b{fill: #000000;}#el_mJSsdx_OHI0{fill: #000000;}#el_csYBvl0zhZi{fill: #000000;}#el_cyxNKidKsdT{fill: #000000;}#el_Sz3DsnpCGlD{fill: #000000;}#el_I99Zgahu48o{fill: #000000;}#el_MOzKVNFoEVf{fill: #000000;}#el_itQI57BGv1D{fill: #000000;}#el_tO0-W1Dy1dC{fill: #000000;}#el_B1_YoWfcnaG{fill: #000000;}#el_yykboUrNNZb{fill: #000000;}#el_T0cKcPOin66{fill: #000000;}#el_uRr1EtpBcf2{fill: #000000;}#el_Sef3UfxHuxL{fill: #000000;}#el_nbc6ohBNJLK{fill: #000000;}#el_3ULbEs14F4j{fill: #000000;}#el_l_15BCIvTHI{fill: #000000;}#el_Jvul4omU9Y6{fill: #000000;}#el_HCPgmNRX1Sy{fill: #000000;}#el_X6fXaBDVH3q{fill: #000000;}#el_iTqpYY6XDw2{fill: #000000;}#el_22Kn8QkfDRk{fill: #000000;}#el_L9hVGxFbY0F{fill: #000000;}#el_Ma7kQ8R5ueE{fill: #000000;}#el_vYYv5AcgECU{fill: #000000;}#el_kwfYgeehw2s{fill: #000000;}#el_JwbfmeAGpeD{fill: #000000;}#el_ggtWQtoMUwq{fill: #000000;}#el_-k4JaHV61Ol{fill: #000000;}#el_DJNscPzg6CZ{fill: #000000;}#el_UFNIBXtTL0A{fill: #000000;}#el_U_MGAVBmMUw{fill: #000000;}#el_MXU0w13qqcY{fill: #000000;}#el_ph-TDZtnqIU{fill: #000000;}#el_fzUZWCxJxia{fill: #000000;}#el__Age7hYRgdS{fill: #000000;}#el_7W9021YPJNd{fill: #000000;}#el_hZuHK-G2_rW{fill: #000000;}#el_gg80LyWArvq{fill: #000000;}#el_k1RhrhmgVgo{fill: #000000;}#el_bVIewiMQfuZ{fill: #000000;}#el_xBrZF8Fwxbh{fill: #000000;}#el_qaMMLzyirqn{fill: #000000;}#el_ZYychsg9MBu{fill: #000000;}#el_fcAFr5SYUPE{fill: #000000;}#el_s-spdTzWsEa{fill: #000000;}#el_eKYUahNgcd6{fill: #000000;}#el_fPX7rM2Ovyv{fill: #000000;}#el_kQpgQN1fGpB{fill: #000000;}#el_hL3Xqhzq1Ca{fill: #000000;}#el_sFi071S-aiA{fill: #000000;}#el_YSl8iuxsP-E{fill: #000000;}#el_LVWBdvHGI0a{fill: #000000;}#el_T_tsPg5AmT2{fill: #000000;}#el_bx7pmzefub0{fill: #000000;}#el_cHLttuWfy90{fill: #9F1635;}#el_G5cGaxhKrEQ{fill: #9F1635;}#el_y9YuzNHLqo5{fill: #9F1635;}#el_CLY4DFR7RJ4{fill: #9F1635;}#el_qUn2frRoRGL{fill: url(#Gradient_2);-webkit-animation-name: el_qUn2frRoRGL_Animation;animation-name: el_qUn2frRoRGL_Animation;opacity: 1;}#el__tXY_Cff3dC{fill: url(#Gradient_3);-webkit-animation-name: el__tXY_Cff3dC_Animation;animation-name: el__tXY_Cff3dC_Animation;opacity: 1;}#el__bT-rzM2GOf{fill: url(#Gradient_4);-webkit-animation-name: el__bT-rzM2GOf_Animation;animation-name: el__bT-rzM2GOf_Animation;opacity: 1;}#el_f7AaI0EPLP7{fill: url(#Gradient_5);-webkit-animation-name: el_f7AaI0EPLP7_Animation;animation-name: el_f7AaI0EPLP7_Animation;opacity: 1;}#el_JI2sJkhNqyy{fill: url(#Gradient_6);-webkit-animation-name: el_JI2sJkhNqyy_Animation;animation-name: el_JI2sJkhNqyy_Animation;opacity: 1;}#el_1g1yROb9-3_nF5EJRraw{-webkit-transform-origin: 50% 50%;transform-origin: 50% 50%;transform-box: fill-box;-webkit-transform: scale(0.75, 0.75);transform: scale(0.75, 0.75);-webkit-animation-name: el_1g1yROb9-3_nF5EJRraw_Animation;animation-name: el_1g1yROb9-3_nF5EJRraw_Animation;}#el_1g1yROb9-3_ju9I88qf3{-webkit-transform-origin: 50% 50%;transform-origin: 50% 50%;transform-box: fill-box;-webkit-transform: translate(-80px, 20px);transform: translate(-80px, 20px);-webkit-animation-name: el_1g1yROb9-3_ju9I88qf3_Animation;animation-name: el_1g1yROb9-3_ju9I88qf3_Animation;}#el_OX0THaLbpl{-webkit-animation-name: el_OX0THaLbpl_Animation;animation-name: el_OX0THaLbpl_Animation;-webkit-animation-timing-function: cubic-bezier(0, 0, 0.58, 1);animation-timing-function: cubic-bezier(0, 0, 0.58, 1);opacity: 1;}</style>
  <defs>
    <linearGradient id="Gradient_1" gradientUnits="userSpaceOnUse" x1="140.11" y1="165.911" x2="358.38" y2="110.029">
      <stop offset="0" stop-color="#9F1635"/>
      <stop offset="0.125" stop-color="#95193E"/>
      <stop offset="0.25" stop-color="#8A1C46"/>
      <stop offset="0.375" stop-color="#801E4F"/>
      <stop offset="0.5" stop-color="#752157"/>
      <stop offset="0.625" stop-color="#6A2460"/>
      <stop offset="0.75" stop-color="#5F2769"/>
      <stop offset="0.875" stop-color="#542A71"/>
      <stop offset="1" stop-color="#4A2C79"/>
    </linearGradient>
    <linearGradient id="Gradient_2" gradientUnits="userSpaceOnUse" x1="33.795" y1="39.606" x2="33.676" y2="166.456">
      <stop offset="0" stop-color="#4A2C79"/>
      <stop offset="0.125" stop-color="#552971"/>
      <stop offset="0.25" stop-color="#5F2669"/>
      <stop offset="0.375" stop-color="#6A2460"/>
      <stop offset="0.5" stop-color="#752157"/>
      <stop offset="0.625" stop-color="#801E4F"/>
      <stop offset="0.75" stop-color="#8B1B46"/>
      <stop offset="0.875" stop-color="#95193E"/>
      <stop offset="1" stop-color="#9F1635"/>
    </linearGradient>
    <linearGradient id="Gradient_3" gradientUnits="userSpaceOnUse" x1="142.704" y1="-2.613" x2="156.99" y2="32.741">
      <stop offset="0" stop-color="#4A2C79"/>
      <stop offset="0.125" stop-color="#552971"/>
      <stop offset="0.25" stop-color="#5F2669"/>
      <stop offset="0.375" stop-color="#6A2460"/>
      <stop offset="0.5" stop-color="#752157"/>
      <stop offset="0.625" stop-color="#801E4F"/>
      <stop offset="0.75" stop-color="#8B1B46"/>
      <stop offset="0.875" stop-color="#95193E"/>
      <stop offset="1" stop-color="#9F1635"/>
    </linearGradient>
    <linearGradient id="Gradient_4" gradientUnits="userSpaceOnUse" x1="112.89" y1="1.984" x2="126.451" y2="35.544">
      <stop offset="0" stop-color="#4A2C79"/>
      <stop offset="0.125" stop-color="#552971"/>
      <stop offset="0.25" stop-color="#5F2669"/>
      <stop offset="0.375" stop-color="#6A2460"/>
      <stop offset="0.5" stop-color="#752157"/>
      <stop offset="0.625" stop-color="#801E4F"/>
      <stop offset="0.75" stop-color="#8B1B46"/>
      <stop offset="0.875" stop-color="#95193E"/>
      <stop offset="1" stop-color="#9F1635"/>
    </linearGradient>
    <linearGradient id="Gradient_5" gradientUnits="userSpaceOnUse" x1="79.906" y1="13.831" x2="102.267" y2="42.449">
      <stop offset="0" stop-color="#4A2C79"/>
      <stop offset="0.125" stop-color="#552971"/>
      <stop offset="0.25" stop-color="#5F2669"/>
      <stop offset="0.375" stop-color="#6A2460"/>
      <stop offset="0.5" stop-color="#752157"/>
      <stop offset="0.625" stop-color="#801E4F"/>
      <stop offset="0.75" stop-color="#8B1B46"/>
      <stop offset="0.875" stop-color="#95193E"/>
      <stop offset="1" stop-color="#9F1635"/>
    </linearGradient>
    <linearGradient id="Gradient_6" gradientUnits="userSpaceOnUse" x1="54.539" y1="29.696" x2="83.35" y2="52.203">
      <stop offset="0" stop-color="#4A2C79"/>
      <stop offset="0.125" stop-color="#552971"/>
      <stop offset="0.25" stop-color="#5F2669"/>
      <stop offset="0.375" stop-color="#6A2460"/>
      <stop offset="0.5" stop-color="#752157"/>
      <stop offset="0.625" stop-color="#801E4F"/>
      <stop offset="0.75" stop-color="#8B1B46"/>
      <stop offset="0.875" stop-color="#95193E"/>
      <stop offset="1" stop-color="#9F1635"/>
    </linearGradient>
  </defs>
  <g id="el_1g1yROb9-3_ju9I88qf3" data-animator-group="true" data-animator-type="0"><g id="el_1g1yROb9-3_nF5EJRraw" data-animator-group="true" data-animator-type="2"><g id="el_1g1yROb9-3">
    <path d="M129.58,52.536 C130.805,53.761 130.805,55.747 129.58,56.972 C128.355,58.197 126.369,58.197 125.144,56.972 C123.919,55.747 123.919,53.761 125.144,52.536 C126.369,51.311 128.355,51.311 129.58,52.536" id="el_Xph8mWBLQk"/>
    <path d="M112.185,57.258 C113.41,58.483 113.41,60.469 112.185,61.694 C110.96,62.919 108.974,62.919 107.749,61.694 C106.524,60.469 106.524,58.483 107.749,57.258 C108.974,56.033 110.96,56.033 112.185,57.258" id="el_FjlD-INBSp"/>
    <path d="M96.435,65.532 C97.66,66.757 97.66,68.743 96.435,69.968 C95.21,71.193 93.224,71.193 91.999,69.968 C90.774,68.743 90.774,66.757 91.999,65.532 C93.224,64.307 95.21,64.307 96.435,65.532" id="el_BI9uc8uJlC"/>
    <path d="M82.342,76.282 C83.567,77.507 83.567,79.493 82.342,80.718 C81.117,81.943 79.131,81.943 77.905,80.718 C76.681,79.493 76.681,77.507 77.905,76.282 C79.131,75.057 81.117,75.057 82.342,76.282" id="el_wDvTOL6K1R"/>
    <path d="M70.111,89.782 C71.336,91.007 71.336,92.993 70.111,94.218 C68.886,95.443 66.9,95.443 65.675,94.218 C64.45,92.993 64.45,91.007 65.675,89.782 C66.9,88.557 68.886,88.557 70.111,89.782" id="el_bT7Ii5DRy2"/>
    <path d="M61.679,105.94 C62.904,107.165 62.904,109.151 61.679,110.376 C60.454,111.601 58.468,111.601 57.243,110.376 C56.018,109.151 56.018,107.165 57.243,105.94 C58.468,104.715 60.454,104.715 61.679,105.94" id="el_JzT35TutBP"/>
    <path d="M56.406,122.94 C57.631,124.165 57.631,126.151 56.406,127.376 C55.181,128.601 53.195,128.601 51.97,127.376 C50.745,126.151 50.745,124.165 51.97,122.94 C53.195,121.715 55.181,121.715 56.406,122.94" id="el_cqwyLvVehy"/>
    <path d="M54.406,140.198 C55.631,141.423 55.631,143.409 54.406,144.634 C53.181,145.859 51.195,145.859 49.97,144.634 C48.745,143.409 48.745,141.423 49.97,140.198 C51.195,138.973 53.181,138.973 54.406,140.198" id="el_KlT77BtY8n"/>
    <path d="M159.153,47.676 C163.062,51.585 163.062,57.923 159.153,61.832 C155.244,65.741 148.906,65.741 144.997,61.832 C141.088,57.923 141.088,51.585 144.997,47.676 C148.906,43.767 155.244,43.767 159.153,47.676" id="el_TY8T21uw2R"/>
    <path d="M136.138,98.456 L123.227,105.913 L123.227,137.413 L136.138,144.872 L161.628,144.872 L161.628,164.127 L137.697,164.127 L137.697,155.223 L122.113,155.223 L122.113,170.027 L135.025,177.484 L164.299,177.484 L177.21,170.027 L177.21,137.859 L164.299,130.402 L138.81,130.402 L138.81,111.813 L161.628,111.813 L161.628,120.717 L177.21,120.717 L177.21,105.913 L164.299,98.456 z M344.481,99.012 L344.481,176.928 L360.063,176.928 L360.063,147.543 L369.748,147.543 L386.443,176.928 L403.585,176.928 L386.667,147.543 L399.578,140.085 L399.578,106.47 L386.667,99.012 z M360.063,112.369 L383.995,112.369 L383.995,134.186 L360.063,134.186 z M290.67,99.012 L290.67,176.928 L306.253,176.928 L306.253,143.535 L331.742,143.535 L331.742,130.178 L306.253,130.178 L306.253,112.369 L338.42,112.369 L338.42,99.012 z M183.271,99.012 L183.271,112.369 L204.308,112.369 L204.308,176.928 L219.891,176.928 L219.891,112.369 L240.928,112.369 L240.928,99.012 z M94.905,176.928 L110.488,176.928 L110.488,99.012 L94.905,99.012 z M94.905,99.012 M244.762,154.889 L280.157,154.889 L280.157,140.753 L244.762,140.753 z" id="el_9YLg6sEYEI"/>
    <g id="el_OX0THaLbpl">
      <path d="M245.355,200.017 C245.054,200.017 244.77,199.958 244.501,199.839 C244.232,199.722 243.998,199.564 243.797,199.367 C243.597,199.17 243.439,198.937 243.325,198.669 C243.21,198.4 243.153,198.116 243.153,197.815 L243.153,193.411 C243.153,193.11 243.21,192.826 243.325,192.556 C243.439,192.288 243.597,192.055 243.797,191.859 C243.998,191.662 244.232,191.503 244.501,191.386 C244.77,191.267 245.054,191.208 245.355,191.208 L252.832,191.208 C253.132,191.208 253.417,191.267 253.686,191.386 C253.954,191.503 254.188,191.662 254.389,191.859 C254.589,192.055 254.747,192.288 254.862,192.556 C254.976,192.826 255.034,193.11 255.034,193.411 L255.034,195.398 L252.832,195.398 L252.832,193.411 L245.355,193.411 L245.355,197.815 L252.832,197.815 C253.132,197.815 253.417,197.872 253.686,197.987 C253.954,198.101 254.188,198.259 254.389,198.459 C254.589,198.66 254.747,198.894 254.862,199.163 C254.976,199.431 255.034,199.716 255.034,200.017 L255.034,204.411 C255.034,204.711 254.976,204.996 254.862,205.265 C254.747,205.533 254.589,205.768 254.389,205.968 C254.188,206.168 253.954,206.327 253.686,206.441 C253.417,206.555 253.132,206.613 252.832,206.613 L245.14,206.613 C244.839,206.613 244.555,206.555 244.286,206.441 C244.018,206.327 243.783,206.168 243.583,205.968 C243.382,205.768 243.224,205.533 243.11,205.265 C242.995,204.996 242.938,204.711 242.938,204.411 L242.938,202.434 L245.14,202.434 L245.14,204.411 L252.832,204.411 L252.832,200.017 z" id="el_LQcN6QLOWN"/>
      <path d="M260.018,191.209 L264.497,198.406 L268.988,191.209 L271.544,191.209 L265.604,200.501 L265.604,206.613 L263.402,206.613 L263.402,200.501 L257.461,191.209 z" id="el_PBBRFy4ayP"/>
      <path d="M281.91,206.613 L276.163,195.323 L276.163,206.613 L273.961,206.613 L273.961,191.209 L276.367,191.209 L282.232,202.81 L288.108,191.209 L290.504,191.209 L290.504,206.613 L288.312,206.613 L288.312,195.323 L282.565,206.613 z" id="el_dGh5k9tjE8"/>
      <path d="M296.67,198.696 L302.782,198.696 C303.369,198.696 303.792,198.567 304.05,198.309 C304.308,198.051 304.437,197.629 304.437,197.042 L304.437,195.065 C304.437,194.478 304.308,194.055 304.05,193.798 C303.792,193.54 303.369,193.411 302.782,193.411 L296.67,193.411 z M294.468,206.613 L294.468,191.209 L302.9,191.209 C305.393,191.209 306.639,192.459 306.639,194.958 L306.639,197.149 C306.639,199.648 305.393,200.898 302.9,200.898 L296.67,200.898 L296.67,206.613 z" id="el_Nm5J2ZmrHof"/>
      <path d="M311.913,204.411 L320.711,204.411 L320.711,193.411 L311.913,193.411 z M311.913,193.411 M322.913,204.411 C322.913,204.712 322.856,204.996 322.741,205.265 C322.627,205.533 322.469,205.768 322.269,205.968 C322.068,206.169 321.834,206.327 321.565,206.441 C321.297,206.555 321.012,206.613 320.711,206.613 L311.913,206.613 C311.613,206.613 311.328,206.555 311.059,206.441 C310.791,206.327 310.556,206.169 310.356,205.968 C310.155,205.768 309.997,205.533 309.883,205.265 C309.768,204.996 309.711,204.712 309.711,204.411 L309.711,193.411 C309.711,193.11 309.768,192.826 309.883,192.556 C309.997,192.289 310.155,192.055 310.356,191.859 C310.556,191.662 310.791,191.504 311.059,191.386 C311.328,191.267 311.613,191.209 311.913,191.209 L320.711,191.209 C321.012,191.209 321.297,191.267 321.565,191.386 C321.834,191.504 322.068,191.662 322.269,191.859 C322.469,192.055 322.627,192.289 322.741,192.556 C322.856,192.826 322.913,193.11 322.913,193.411 z" id="el_lLJ-U61rGZP"/>
      <path d="M329.069,200.017 C328.768,200.017 328.484,199.958 328.215,199.839 C327.946,199.722 327.712,199.564 327.511,199.367 C327.311,199.17 327.153,198.937 327.039,198.669 C326.924,198.4 326.867,198.116 326.867,197.815 L326.867,193.411 C326.867,193.11 326.924,192.826 327.039,192.556 C327.153,192.288 327.311,192.055 327.511,191.859 C327.712,191.662 327.946,191.503 328.215,191.386 C328.484,191.267 328.768,191.208 329.069,191.208 L336.546,191.208 C336.846,191.208 337.131,191.267 337.4,191.386 C337.668,191.503 337.902,191.662 338.103,191.859 C338.303,192.055 338.461,192.288 338.576,192.556 C338.69,192.826 338.748,193.11 338.748,193.411 L338.748,195.398 L336.546,195.398 L336.546,193.411 L329.069,193.411 L329.069,197.815 L336.546,197.815 C336.846,197.815 337.131,197.872 337.4,197.987 C337.668,198.101 337.902,198.259 338.103,198.459 C338.303,198.66 338.461,198.894 338.576,199.163 C338.69,199.431 338.748,199.716 338.748,200.017 L338.748,204.411 C338.748,204.711 338.69,204.996 338.576,205.265 C338.461,205.533 338.303,205.768 338.103,205.968 C337.902,206.168 337.668,206.327 337.4,206.441 C337.131,206.555 336.846,206.613 336.546,206.613 L328.854,206.613 C328.553,206.613 328.269,206.555 328,206.441 C327.732,206.327 327.497,206.168 327.297,205.968 C327.096,205.768 326.938,205.533 326.824,205.265 C326.709,204.996 326.652,204.711 326.652,204.411 L326.652,202.434 L328.854,202.434 L328.854,204.411 L336.546,204.411 L336.546,200.017 z" id="el_1yO4wf4F73b"/>
      <path d="M344.913,206.613 L342.711,206.613 L342.711,191.209 L344.913,191.209 z" id="el_mJSsdx_OHI0"/>
      <path d="M348.866,191.209 L351.068,191.209 L351.068,204.411 L359.866,204.411 L359.866,191.209 L362.068,191.209 L362.068,204.411 C362.068,204.712 362.011,204.996 361.896,205.266 C361.782,205.533 361.624,205.769 361.424,205.969 C361.223,206.169 360.989,206.327 360.72,206.441 C360.451,206.556 360.167,206.613 359.866,206.613 L351.068,206.613 C350.767,206.613 350.483,206.556 350.214,206.441 C349.946,206.327 349.711,206.169 349.511,205.969 C349.31,205.769 349.152,205.533 349.038,205.266 C348.923,204.996 348.866,204.712 348.866,204.411 z" id="el_csYBvl0zhZi"/>
      <path d="M373.971,206.613 L368.224,195.323 L368.224,206.613 L366.022,206.613 L366.022,191.209 L368.428,191.209 L374.293,202.81 L380.169,191.209 L382.565,191.209 L382.565,206.613 L380.373,206.613 L380.373,195.323 L374.626,206.613 z" id="el_cyxNKidKsdT"/>
      <path d="M395.326,204.411 L404.124,204.411 L404.124,193.411 L395.326,193.411 z M395.326,193.411 M406.326,204.411 C406.326,204.712 406.269,204.996 406.155,205.265 C406.039,205.533 405.882,205.768 405.682,205.968 C405.481,206.169 405.246,206.327 404.979,206.441 C404.709,206.555 404.425,206.613 404.124,206.613 L395.326,206.613 C395.026,206.613 394.74,206.555 394.473,206.441 C394.203,206.327 393.969,206.169 393.769,205.968 C393.569,205.768 393.41,205.533 393.296,205.265 C393.182,204.996 393.124,204.712 393.124,204.411 L393.124,193.411 C393.124,193.11 393.182,192.826 393.296,192.556 C393.41,192.289 393.569,192.055 393.769,191.859 C393.969,191.662 394.203,191.504 394.473,191.386 C394.74,191.267 395.026,191.209 395.326,191.209 L404.124,191.209 C404.425,191.209 404.709,191.267 404.979,191.386 C405.246,191.504 405.481,191.662 405.682,191.859 C405.882,192.055 406.039,192.289 406.155,192.556 C406.269,192.826 406.326,193.11 406.326,193.411 z" id="el_Sz3DsnpCGlD"/>
      <path d="M412.482,206.613 L410.28,206.613 L410.28,191.209 L412.482,191.209 L421.742,203.154 L421.742,191.209 L423.944,191.209 L423.944,206.613 L421.742,206.613 L412.482,194.668 z" id="el_I99Zgahu48o"/>
      <path d="M434.492,191.209 L445.718,191.209 L445.718,193.411 L436.694,193.411 L436.694,197.815 L444.396,197.815 L444.396,200.018 L436.694,200.018 L436.694,206.613 L434.492,206.613 z" id="el_MOzKVNFoEVf"/>
      <path d="M450.992,198.256 L457.104,198.256 C457.691,198.256 458.114,198.127 458.372,197.869 C458.63,197.611 458.759,197.189 458.759,196.602 L458.759,195.066 C458.759,194.479 458.63,194.056 458.372,193.798 C458.114,193.54 457.691,193.411 457.104,193.411 L450.992,193.411 z M460.961,196.709 C460.961,198.858 460.044,200.082 458.211,200.383 L461.111,206.613 L458.673,206.613 L455.815,200.458 L450.992,200.458 L450.992,206.613 L448.79,206.613 L448.79,191.209 L457.222,191.209 C459.715,191.209 460.961,192.459 460.961,194.958 z" id="el_itQI57BGv1D"/>
      <path d="M466.837,204.411 L475.635,204.411 L475.635,193.411 L466.837,193.411 z M466.837,193.411 M477.837,204.411 C477.837,204.712 477.78,204.996 477.665,205.265 C477.551,205.533 477.393,205.768 477.193,205.968 C476.992,206.169 476.758,206.327 476.488,206.441 C476.221,206.555 475.936,206.613 475.635,206.613 L466.837,206.613 C466.536,206.613 466.252,206.555 465.983,206.441 C465.715,206.327 465.48,206.169 465.28,205.968 C465.078,205.768 464.921,205.533 464.807,205.265 C464.692,204.996 464.635,204.712 464.635,204.411 L464.635,193.411 C464.635,193.11 464.692,192.826 464.807,192.556 C464.921,192.289 465.078,192.055 465.28,191.859 C465.48,191.662 465.715,191.504 465.983,191.386 C466.252,191.267 466.536,191.209 466.837,191.209 L475.635,191.209 C475.936,191.209 476.221,191.267 476.488,191.386 C476.758,191.504 476.992,191.662 477.193,191.859 C477.393,192.055 477.551,192.289 477.665,192.556 C477.78,192.826 477.837,193.11 477.837,193.411 z" id="el_tO0-W1Dy1dC"/>
      <path d="M483.992,206.613 L481.79,206.613 L481.79,191.209 L483.992,191.209 L493.252,203.154 L493.252,191.209 L495.454,191.209 L495.454,206.613 L493.252,206.613 L483.992,194.668 z" id="el_B1_YoWfcnaG"/>
      <path d="M498.086,191.209 L510.407,191.209 L510.407,193.411 L505.348,193.411 L505.348,206.613 L503.146,206.613 L503.146,193.411 L498.086,193.411 z" id="el_yykboUrNNZb"/>
      <path d="M515.252,206.613 L513.05,206.613 L513.05,191.209 L515.252,191.209 z" id="el_T0cKcPOin66"/>
      <path d="M519.205,191.209 L530.431,191.209 L530.431,193.411 L521.407,193.411 L521.407,197.815 L529.109,197.815 L529.109,200.018 L521.407,200.018 L521.407,204.411 L530.431,204.411 L530.431,206.613 L519.205,206.613 z" id="el_uRr1EtpBcf2"/>
      <path d="M535.931,198.256 L542.043,198.256 C542.63,198.256 543.053,198.127 543.311,197.869 C543.569,197.611 543.698,197.189 543.698,196.602 L543.698,195.066 C543.698,194.479 543.569,194.056 543.311,193.798 C543.053,193.54 542.63,193.411 542.043,193.411 L535.931,193.411 z M545.9,196.709 C545.9,198.858 544.983,200.082 543.15,200.383 L546.05,206.613 L543.612,206.613 L540.754,200.458 L535.931,200.458 L535.931,206.613 L533.729,206.613 L533.729,191.209 L542.161,191.209 C544.654,191.209 545.9,192.459 545.9,194.958 z" id="el_Sef3UfxHuxL"/>
      <path d="M558.371,198.256 L564.483,198.256 C565.07,198.256 565.493,198.127 565.751,197.869 C566.009,197.611 566.138,197.189 566.138,196.602 L566.138,195.066 C566.138,194.479 566.009,194.056 565.751,193.798 C565.493,193.54 565.07,193.411 564.483,193.411 L558.371,193.411 z M568.34,196.709 C568.34,198.858 567.423,200.082 565.59,200.383 L568.49,206.613 L566.052,206.613 L563.194,200.458 L558.371,200.458 L558.371,206.613 L556.169,206.613 L556.169,191.209 L564.601,191.209 C567.094,191.209 568.34,192.459 568.34,194.958 z" id="el_nbc6ohBNJLK"/>
      <path d="M572.014,191.209 L583.24,191.209 L583.24,193.411 L574.216,193.411 L574.216,197.815 L581.918,197.815 L581.918,200.018 L574.216,200.018 L574.216,204.411 L583.24,204.411 L583.24,206.613 L572.014,206.613 z" id="el_3ULbEs14F4j"/>
      <path d="M588.739,200.017 C588.438,200.017 588.154,199.958 587.885,199.839 C587.617,199.722 587.382,199.564 587.181,199.367 C586.98,199.17 586.823,198.937 586.709,198.669 C586.593,198.4 586.537,198.116 586.537,197.815 L586.537,193.411 C586.537,193.11 586.593,192.826 586.709,192.556 C586.823,192.288 586.98,192.055 587.181,191.859 C587.382,191.662 587.617,191.503 587.885,191.386 C588.154,191.267 588.438,191.208 588.739,191.208 L596.216,191.208 C596.516,191.208 596.801,191.267 597.07,191.386 C597.338,191.503 597.572,191.662 597.773,191.859 C597.973,192.055 598.131,192.288 598.246,192.556 C598.36,192.826 598.418,193.11 598.418,193.411 L598.418,195.398 L596.216,195.398 L596.216,193.411 L588.739,193.411 L588.739,197.815 L596.216,197.815 C596.516,197.815 596.801,197.872 597.07,197.987 C597.338,198.101 597.572,198.259 597.773,198.459 C597.973,198.66 598.131,198.894 598.246,199.163 C598.36,199.431 598.418,199.716 598.418,200.017 L598.418,204.411 C598.418,204.711 598.36,204.996 598.246,205.265 C598.131,205.533 597.973,205.768 597.773,205.968 C597.572,206.168 597.338,206.327 597.07,206.441 C596.801,206.555 596.516,206.613 596.216,206.613 L588.524,206.613 C588.223,206.613 587.939,206.555 587.67,206.441 C587.402,206.327 587.167,206.168 586.967,205.968 C586.765,205.768 586.608,205.533 586.494,205.265 C586.379,204.996 586.322,204.711 586.322,204.411 L586.322,202.434 L588.524,202.434 L588.524,204.411 L596.216,204.411 L596.216,200.017 z" id="el_l_15BCIvTHI"/>
      <path d="M602.382,191.209 L613.608,191.209 L613.608,193.411 L604.584,193.411 L604.584,197.815 L612.286,197.815 L612.286,200.018 L604.584,200.018 L604.584,204.411 L613.608,204.411 L613.608,206.613 L602.382,206.613 z" id="el_Jvul4omU9Y6"/>
      <path d="M619.988,200.866 L625.252,200.866 L622.631,194.077 z M623.726,191.209 L629.667,206.613 L627.465,206.613 L626.1,203.068 L619.15,203.068 L617.786,206.613 L615.584,206.613 L621.524,191.209 z" id="el_HCPgmNRX1Sy"/>
      <path d="M634.512,198.256 L640.624,198.256 C641.211,198.256 641.634,198.127 641.892,197.869 C642.15,197.611 642.279,197.189 642.279,196.602 L642.279,195.066 C642.279,194.479 642.15,194.056 641.892,193.798 C641.634,193.54 641.211,193.411 640.624,193.411 L634.512,193.411 z M644.481,196.709 C644.481,198.858 643.564,200.082 641.731,200.383 L644.631,206.613 L642.193,206.613 L639.335,200.458 L634.512,200.458 L634.512,206.613 L632.31,206.613 L632.31,191.209 L640.742,191.209 C643.235,191.209 644.481,192.459 644.481,194.958 z" id="el_X6fXaBDVH3q"/>
      <path d="M648.154,193.411 C648.154,193.11 648.211,192.826 648.326,192.557 C648.44,192.289 648.597,192.056 648.799,191.859 C648.999,191.662 649.234,191.504 649.502,191.387 C649.771,191.267 650.055,191.209 650.356,191.209 L658.714,191.209 C659.014,191.209 659.299,191.267 659.568,191.387 C659.836,191.504 660.07,191.662 660.271,191.859 C660.471,192.056 660.629,192.289 660.744,192.557 C660.858,192.826 660.916,193.11 660.916,193.411 L660.916,195.398 L658.714,195.398 L658.714,193.411 L650.356,193.411 L650.356,204.411 L658.714,204.411 L658.714,202.434 L660.916,202.434 L660.916,204.411 C660.916,204.712 660.858,204.996 660.744,205.265 C660.629,205.533 660.471,205.768 660.271,205.969 C660.07,206.169 659.836,206.327 659.568,206.441 C659.299,206.556 659.014,206.613 658.714,206.613 L650.356,206.613 C650.055,206.613 649.771,206.556 649.502,206.441 C649.234,206.327 648.999,206.169 648.799,205.969 C648.597,205.768 648.44,205.533 648.326,205.265 C648.211,204.996 648.154,204.712 648.154,204.411 z" id="el_iTqpYY6XDw2"/>
      <path d="M677.663,191.209 L677.663,206.613 L675.461,206.613 L675.461,200.018 L666.642,200.018 L666.642,206.613 L664.439,206.613 L664.439,191.209 L666.642,191.209 L666.642,197.815 L675.461,197.815 L675.461,191.209 z" id="el_22Kn8QkfDRk"/>
      <path d="M246.355,228.613 L244.153,228.613 L244.153,213.209 L246.355,213.209 z" id="el_L9hVGxFbY0F"/>
      <path d="M252.51,228.613 L250.308,228.613 L250.308,213.209 L252.51,213.209 L261.77,225.154 L261.77,213.209 L263.972,213.209 L263.972,228.613 L261.77,228.613 L252.51,216.668 z" id="el_Ma7kQ8R5ueE"/>
      <path d="M276.723,228.613 L274.521,228.613 L274.521,213.209 L276.723,213.209 z" id="el_vYYv5AcgECU"/>
      <path d="M282.878,228.613 L280.676,228.613 L280.676,213.209 L282.878,213.209 L292.138,225.154 L292.138,213.209 L294.34,213.209 L294.34,228.613 L292.138,228.613 L282.878,216.668 z" id="el_kwfYgeehw2s"/>
      <path d="M298.293,213.209 L309.519,213.209 L309.519,215.411 L300.495,215.411 L300.495,219.815 L308.197,219.815 L308.197,222.018 L300.495,222.018 L300.495,228.613 L298.293,228.613 z" id="el_JwbfmeAGpeD"/>
      <path d="M314.793,226.411 L323.591,226.411 L323.591,215.411 L314.793,215.411 z M314.793,215.411 M325.793,226.411 C325.793,226.712 325.736,226.996 325.621,227.265 C325.507,227.533 325.349,227.768 325.149,227.968 C324.948,228.169 324.714,228.327 324.445,228.441 C324.176,228.555 323.892,228.613 323.591,228.613 L314.793,228.613 C314.492,228.613 314.208,228.555 313.939,228.441 C313.671,228.327 313.436,228.169 313.236,227.968 C313.035,227.768 312.877,227.533 312.763,227.265 C312.648,226.996 312.591,226.712 312.591,226.411 L312.591,215.411 C312.591,215.11 312.648,214.826 312.763,214.556 C312.877,214.289 313.035,214.055 313.236,213.859 C313.436,213.662 313.671,213.504 313.939,213.386 C314.208,213.267 314.492,213.209 314.793,213.209 L323.591,213.209 C323.892,213.209 324.176,213.267 324.445,213.386 C324.714,213.504 324.948,213.662 325.149,213.859 C325.349,214.055 325.507,214.289 325.621,214.556 C325.736,214.826 325.793,215.11 325.793,215.411 z" id="el_ggtWQtoMUwq"/>
      <path d="M331.948,220.256 L338.06,220.256 C338.647,220.256 339.07,220.127 339.328,219.869 C339.586,219.611 339.715,219.189 339.715,218.602 L339.715,217.066 C339.715,216.479 339.586,216.056 339.328,215.798 C339.07,215.54 338.647,215.411 338.06,215.411 L331.948,215.411 z M341.917,218.709 C341.917,220.858 341,222.082 339.167,222.383 L342.067,228.613 L339.629,228.613 L336.771,222.458 L331.948,222.458 L331.948,228.613 L329.746,228.613 L329.746,213.209 L338.178,213.209 C340.671,213.209 341.917,214.459 341.917,216.958 z" id="el_-k4JaHV61Ol"/>
      <path d="M353.54,228.613 L347.793,217.323 L347.793,228.613 L345.591,228.613 L345.591,213.209 L347.997,213.209 L353.862,224.81 L359.738,213.209 L362.134,213.209 L362.134,228.613 L359.942,228.613 L359.942,217.323 L354.195,228.613 z" id="el_DJNscPzg6CZ"/>
      <path d="M369.181,222.866 L374.445,222.866 L371.824,216.077 z M372.919,213.209 L378.86,228.613 L376.658,228.613 L375.293,225.068 L368.343,225.068 L366.979,228.613 L364.777,228.613 L370.717,213.209 z" id="el_UFNIBXtTL0A"/>
      <path d="M378.421,213.209 L390.742,213.209 L390.742,215.411 L385.683,215.411 L385.683,228.613 L383.481,228.613 L383.481,215.411 L378.421,215.411 z" id="el_U_MGAVBmMUw"/>
      <path d="M395.587,228.613 L393.385,228.613 L393.385,213.209 L395.587,213.209 z" id="el_MXU0w13qqcY"/>
      <path d="M401.742,226.411 L410.54,226.411 L410.54,215.411 L401.742,215.411 z M401.742,215.411 M412.742,226.411 C412.742,226.712 412.685,226.996 412.571,227.265 C412.455,227.533 412.298,227.768 412.098,227.968 C411.897,228.169 411.662,228.327 411.395,228.441 C411.125,228.555 410.841,228.613 410.54,228.613 L401.742,228.613 C401.442,228.613 401.156,228.555 400.889,228.441 C400.619,228.327 400.385,228.169 400.185,227.968 C399.985,227.768 399.826,227.533 399.712,227.265 C399.598,226.996 399.54,226.712 399.54,226.411 L399.54,215.411 C399.54,215.11 399.598,214.826 399.712,214.556 C399.826,214.289 399.985,214.055 400.185,213.859 C400.385,213.662 400.619,213.504 400.889,213.386 C401.156,213.267 401.442,213.209 401.742,213.209 L410.54,213.209 C410.841,213.209 411.125,213.267 411.395,213.386 C411.662,213.504 411.897,213.662 412.098,213.859 C412.298,214.055 412.455,214.289 412.571,214.556 C412.685,214.826 412.742,215.11 412.742,215.411 z" id="el_ph-TDZtnqIU"/>
      <path d="M418.898,228.613 L416.696,228.613 L416.696,213.209 L418.898,213.209 L428.158,225.154 L428.158,213.209 L430.36,213.209 L430.36,228.613 L428.158,228.613 L418.898,216.668 z" id="el_fzUZWCxJxia"/>
      <path d="M443.111,222.017 C442.81,222.017 442.526,221.958 442.257,221.839 C441.989,221.722 441.754,221.564 441.553,221.367 C441.352,221.17 441.195,220.937 441.081,220.669 C440.965,220.4 440.909,220.116 440.909,219.815 L440.909,215.411 C440.909,215.11 440.965,214.826 441.081,214.556 C441.195,214.288 441.352,214.055 441.553,213.859 C441.754,213.662 441.989,213.503 442.257,213.386 C442.526,213.267 442.81,213.208 443.111,213.208 L450.588,213.208 C450.888,213.208 451.173,213.267 451.442,213.386 C451.71,213.503 451.944,213.662 452.145,213.859 C452.345,214.055 452.503,214.288 452.618,214.556 C452.732,214.826 452.79,215.11 452.79,215.411 L452.79,217.398 L450.588,217.398 L450.588,215.411 L443.111,215.411 L443.111,219.815 L450.588,219.815 C450.888,219.815 451.173,219.872 451.442,219.987 C451.71,220.101 451.944,220.259 452.145,220.459 C452.345,220.66 452.503,220.894 452.618,221.163 C452.732,221.431 452.79,221.716 452.79,222.017 L452.79,226.411 C452.79,226.711 452.732,226.996 452.618,227.265 C452.503,227.533 452.345,227.768 452.145,227.968 C451.944,228.168 451.71,228.327 451.442,228.441 C451.173,228.555 450.888,228.613 450.588,228.613 L442.896,228.613 C442.595,228.613 442.311,228.555 442.042,228.441 C441.774,228.327 441.539,228.168 441.339,227.968 C441.137,227.768 440.98,227.533 440.866,227.265 C440.751,226.996 440.694,226.711 440.694,226.411 L440.694,224.434 L442.896,224.434 L442.896,226.411 L450.588,226.411 L450.588,222.017 z" id="el__Age7hYRgdS"/>
      <path d="M456.753,215.411 C456.753,215.11 456.811,214.826 456.925,214.557 C457.039,214.289 457.197,214.056 457.398,213.859 C457.598,213.662 457.832,213.504 458.102,213.387 C458.369,213.267 458.654,213.209 458.955,213.209 L467.313,213.209 C467.613,213.209 467.899,213.267 468.166,213.387 C468.436,213.504 468.67,213.662 468.87,213.859 C469.07,214.056 469.229,214.289 469.343,214.557 C469.457,214.826 469.515,215.11 469.515,215.411 L469.515,217.398 L467.313,217.398 L467.313,215.411 L458.955,215.411 L458.955,226.411 L467.313,226.411 L467.313,224.434 L469.515,224.434 L469.515,226.411 C469.515,226.712 469.457,226.996 469.343,227.265 C469.229,227.533 469.07,227.768 468.87,227.969 C468.67,228.169 468.436,228.327 468.166,228.441 C467.899,228.556 467.613,228.613 467.313,228.613 L458.955,228.613 C458.654,228.613 458.369,228.556 458.102,228.441 C457.832,228.327 457.598,228.169 457.398,227.969 C457.197,227.768 457.039,227.533 456.925,227.265 C456.811,226.996 456.753,226.712 456.753,226.411 z" id="el_7W9021YPJNd"/>
      <path d="M475.24,228.613 L473.038,228.613 L473.038,213.209 L475.24,213.209 z" id="el_hZuHK-G2_rW"/>
      <path d="M479.194,213.209 L490.42,213.209 L490.42,215.411 L481.396,215.411 L481.396,219.815 L489.098,219.815 L489.098,222.018 L481.396,222.018 L481.396,226.411 L490.42,226.411 L490.42,228.613 L479.194,228.613 z" id="el_gg80LyWArvq"/>
      <path d="M495.919,228.613 L493.717,228.613 L493.717,213.209 L495.919,213.209 L505.179,225.154 L505.179,213.209 L507.381,213.209 L507.381,228.613 L505.179,228.613 L495.919,216.668 z" id="el_k1RhrhmgVgo"/>
      <path d="M511.334,215.411 C511.334,215.11 511.391,214.826 511.506,214.557 C511.62,214.289 511.777,214.056 511.979,213.859 C512.179,213.662 512.414,213.504 512.682,213.387 C512.951,213.267 513.235,213.209 513.536,213.209 L521.894,213.209 C522.194,213.209 522.479,213.267 522.748,213.387 C523.016,213.504 523.25,213.662 523.451,213.859 C523.651,214.056 523.809,214.289 523.924,214.557 C524.038,214.826 524.096,215.11 524.096,215.411 L524.096,217.398 L521.894,217.398 L521.894,215.411 L513.536,215.411 L513.536,226.411 L521.894,226.411 L521.894,224.434 L524.096,224.434 L524.096,226.411 C524.096,226.712 524.038,226.996 523.924,227.265 C523.809,227.533 523.651,227.768 523.451,227.969 C523.25,228.169 523.016,228.327 522.748,228.441 C522.479,228.556 522.194,228.613 521.894,228.613 L513.536,228.613 C513.235,228.613 512.951,228.556 512.682,228.441 C512.414,228.327 512.179,228.169 511.979,227.969 C511.777,227.768 511.62,227.533 511.506,227.265 C511.391,226.996 511.334,226.712 511.334,226.411 z" id="el_bVIewiMQfuZ"/>
      <path d="M527.619,213.209 L538.845,213.209 L538.845,215.411 L529.821,215.411 L529.821,219.815 L537.523,219.815 L537.523,222.018 L529.821,222.018 L529.821,226.411 L538.845,226.411 L538.845,228.613 L527.619,228.613 z" id="el_xBrZF8Fwxbh"/>
      <path d="M551.821,222.866 L557.085,222.866 L554.464,216.077 z M555.559,213.209 L561.5,228.613 L559.298,228.613 L557.933,225.068 L550.983,225.068 L549.619,228.613 L547.417,228.613 L553.357,213.209 z" id="el_qaMMLzyirqn"/>
      <path d="M566.345,228.613 L564.143,228.613 L564.143,213.209 L566.345,213.209 L575.605,225.154 L575.605,213.209 L577.807,213.209 L577.807,228.613 L575.605,228.613 L566.345,216.668 z" id="el_ZYychsg9MBu"/>
      <path d="M589.591,226.411 C590.615,226.411 591.403,226.136 591.954,225.584 C592.506,225.032 592.781,224.245 592.781,223.221 L592.781,218.601 C592.781,218.1 592.709,217.652 592.567,217.259 C592.423,216.865 592.213,216.53 591.938,216.254 C591.662,215.978 591.327,215.769 590.934,215.626 C590.539,215.482 590.092,215.411 589.591,215.411 L583.962,215.411 L583.962,226.411 z M581.76,228.613 L581.76,213.209 L589.591,213.209 C590.414,213.209 591.157,213.336 591.82,213.59 C592.483,213.845 593.048,214.206 593.518,214.676 C593.987,215.144 594.348,215.712 594.602,216.378 C594.856,217.044 594.984,217.785 594.984,218.601 L594.984,223.221 C594.984,224.037 594.856,224.778 594.602,225.444 C594.348,226.11 593.987,226.678 593.518,227.146 C593.048,227.616 592.483,227.977 591.82,228.232 C591.157,228.486 590.414,228.613 589.591,228.613 z" id="el_fcAFr5SYUPE"/>
      <path d="M603.781,213.209 L616.102,213.209 L616.102,215.411 L611.043,215.411 L611.043,228.613 L608.841,228.613 L608.841,215.411 L603.781,215.411 z" id="el_s-spdTzWsEa"/>
      <path d="M618.745,213.209 L629.971,213.209 L629.971,215.411 L620.947,215.411 L620.947,219.815 L628.649,219.815 L628.649,222.018 L620.947,222.018 L620.947,226.411 L629.971,226.411 L629.971,228.613 L618.745,228.613 z" id="el_eKYUahNgcd6"/>
      <path d="M633.269,215.411 C633.269,215.11 633.327,214.826 633.441,214.557 C633.555,214.289 633.713,214.056 633.914,213.859 C634.114,213.662 634.348,213.504 634.618,213.387 C634.885,213.267 635.17,213.209 635.471,213.209 L643.829,213.209 C644.129,213.209 644.415,213.267 644.682,213.387 C644.952,213.504 645.186,213.662 645.386,213.859 C645.586,214.056 645.745,214.289 645.859,214.557 C645.973,214.826 646.031,215.11 646.031,215.411 L646.031,217.398 L643.829,217.398 L643.829,215.411 L635.471,215.411 L635.471,226.411 L643.829,226.411 L643.829,224.434 L646.031,224.434 L646.031,226.411 C646.031,226.712 645.973,226.996 645.859,227.265 C645.745,227.533 645.586,227.768 645.386,227.969 C645.186,228.169 644.952,228.327 644.682,228.441 C644.415,228.556 644.129,228.613 643.829,228.613 L635.471,228.613 C635.17,228.613 634.885,228.556 634.618,228.441 C634.348,228.327 634.114,228.169 633.914,227.969 C633.713,227.768 633.555,227.533 633.441,227.265 C633.327,226.996 633.269,226.712 633.269,226.411 z" id="el_fPX7rM2Ovyv"/>
      <path d="M662.778,213.209 L662.778,228.613 L660.576,228.613 L660.576,222.018 L651.757,222.018 L651.757,228.613 L649.554,228.613 L649.554,213.209 L651.757,213.209 L651.757,219.815 L660.576,219.815 L660.576,213.209 z" id="el_kQpgQN1fGpB"/>
      <path d="M668.933,228.613 L666.731,228.613 L666.731,213.209 L668.933,213.209 L678.193,225.154 L678.193,213.209 L680.395,213.209 L680.395,228.613 L678.193,228.613 L668.933,216.668 z" id="el_hL3Xqhzq1Ca"/>
      <path d="M686.55,226.411 L695.348,226.411 L695.348,215.411 L686.55,215.411 z M686.55,215.411 M697.55,226.411 C697.55,226.712 697.492,226.996 697.378,227.265 C697.264,227.533 697.106,227.768 696.905,227.968 C696.705,228.169 696.471,228.327 696.201,228.441 C695.934,228.555 695.649,228.613 695.348,228.613 L686.55,228.613 C686.249,228.613 685.965,228.555 685.696,228.441 C685.428,228.327 685.193,228.169 684.992,227.968 C684.791,227.768 684.634,227.533 684.52,227.265 C684.405,226.996 684.348,226.712 684.348,226.411 L684.348,215.411 C684.348,215.11 684.405,214.826 684.52,214.556 C684.634,214.289 684.791,214.055 684.992,213.859 C685.193,213.662 685.428,213.504 685.696,213.386 C685.965,213.267 686.249,213.209 686.55,213.209 L695.348,213.209 C695.649,213.209 695.934,213.267 696.201,213.386 C696.471,213.504 696.705,213.662 696.905,213.859 C697.106,214.055 697.264,214.289 697.378,214.556 C697.492,214.826 697.55,215.11 697.55,215.411 z" id="el_sFi071S-aiA"/>
      <path d="M703.705,213.209 L703.705,226.411 L711.622,226.411 L711.622,228.613 L701.503,228.613 L701.503,213.209 z" id="el_YSl8iuxsP-E"/>
      <path d="M716.467,226.411 L725.265,226.411 L725.265,215.411 L716.467,215.411 z M716.467,215.411 M727.467,226.411 C727.467,226.712 727.409,226.996 727.295,227.265 C727.18,227.533 727.023,227.768 726.822,227.968 C726.621,228.169 726.387,228.327 726.119,228.441 C725.85,228.555 725.566,228.613 725.265,228.613 L716.467,228.613 C716.166,228.613 715.881,228.555 715.613,228.441 C715.344,228.327 715.11,228.169 714.909,227.968 C714.709,227.768 714.551,227.533 714.437,227.265 C714.322,226.996 714.265,226.712 714.265,226.411 L714.265,215.411 C714.265,215.11 714.322,214.826 714.437,214.556 C714.551,214.289 714.709,214.055 714.909,213.859 C715.11,213.662 715.344,213.504 715.613,213.386 C715.881,213.267 716.166,213.209 716.467,213.209 L725.265,213.209 C725.566,213.209 725.85,213.267 726.119,213.386 C726.387,213.504 726.621,213.662 726.822,213.859 C727.023,214.055 727.18,214.289 727.295,214.556 C727.409,214.826 727.467,215.11 727.467,215.411 z" id="el_LVWBdvHGI0a"/>
      <path d="M731.42,215.411 C731.42,215.11 731.477,214.826 731.592,214.557 C731.706,214.289 731.863,214.056 732.065,213.859 C732.265,213.662 732.5,213.504 732.768,213.387 C733.037,213.267 733.321,213.209 733.622,213.209 L741.98,213.209 C742.28,213.209 742.565,213.267 742.834,213.387 C743.102,213.504 743.336,213.662 743.537,213.859 C743.737,214.056 743.895,214.289 744.01,214.557 C744.124,214.826 744.182,215.11 744.182,215.411 L744.182,217.398 L741.98,217.398 L741.98,215.411 L733.622,215.411 L733.622,226.411 L741.98,226.411 L741.98,222.673 L737.801,222.673 L737.801,220.471 L744.182,220.471 L744.182,226.411 C744.182,226.712 744.124,226.996 744.01,227.265 C743.895,227.533 743.737,227.768 743.537,227.969 C743.336,228.169 743.102,228.327 742.834,228.441 C742.565,228.556 742.28,228.613 741.98,228.613 L733.622,228.613 C733.321,228.613 733.037,228.556 732.768,228.441 C732.5,228.327 732.265,228.169 732.065,227.969 C731.863,227.768 731.706,227.533 731.592,227.265 C731.477,226.996 731.42,226.712 731.42,226.411 z" id="el_T_tsPg5AmT2"/>
      <path d="M749.155,213.209 L753.634,220.406 L758.125,213.209 L760.681,213.209 L754.741,222.501 L754.741,228.613 L752.539,228.613 L752.539,222.501 L746.598,213.209 z" id="el_bx7pmzefub0"/>
      <path d="M98.446,194.408 L98.446,199.556 L92.74,199.556 L92.74,194.408 C92.74,193.629 92.889,192.89 93.186,192.195 C93.482,191.499 93.891,190.896 94.41,190.386 C94.929,189.876 95.537,189.468 96.234,189.161 C96.929,188.855 97.667,188.702 98.446,188.702 L116.509,188.702 C117.288,188.702 118.026,188.855 118.722,189.161 C119.417,189.468 120.02,189.876 120.53,190.386 C121.041,190.896 121.449,191.499 121.755,192.195 C122.062,192.89 122.215,193.629 122.215,194.408 L122.215,201.699 C122.215,202.478 122.14,203.175 121.992,203.787 C121.843,204.399 121.607,204.952 121.282,205.443 C120.957,205.934 120.545,206.375 120.044,206.765 C119.543,207.154 118.93,207.526 118.207,207.879 L98.446,217.146 L98.446,222.908 L117.233,222.908 L117.233,217.787 L122.938,217.787 L122.938,228.613 L92.74,228.613 L92.74,218.121 C92.74,217.342 92.819,216.645 92.977,216.033 C93.134,215.421 93.371,214.874 93.687,214.39 C94.002,213.909 94.415,213.469 94.925,213.069 C95.435,212.67 96.034,212.304 96.72,211.97 L116.509,202.674 L116.509,194.408 z" id="el_cHLttuWfy90"/>
      <path d="M138.329,222.908 L158.285,222.908 L158.285,194.408 L138.329,194.408 z M138.329,194.408 M163.99,222.908 C163.99,223.687 163.842,224.425 163.545,225.12 C163.248,225.816 162.84,226.424 162.321,226.943 C161.801,227.463 161.193,227.871 160.498,228.168 C159.801,228.465 159.064,228.613 158.285,228.613 L138.329,228.613 C137.55,228.613 136.812,228.465 136.117,228.168 C135.421,227.871 134.813,227.463 134.294,226.943 C133.774,226.424 133.365,225.816 133.069,225.12 C132.772,224.425 132.624,223.687 132.624,222.908 L132.624,194.408 C132.624,193.629 132.772,192.89 133.069,192.195 C133.365,191.499 133.774,190.896 134.294,190.385 C134.813,189.876 135.421,189.467 136.117,189.161 C136.812,188.855 137.55,188.702 138.329,188.702 L158.285,188.702 C159.064,188.702 159.801,188.855 160.498,189.161 C161.193,189.467 161.801,189.876 162.321,190.385 C162.84,190.896 163.248,191.499 163.545,192.195 C163.842,192.89 163.99,193.629 163.99,194.408 z" id="el_G5cGaxhKrEQ"/>
      <path d="M183.361,188.702 L183.361,228.613 L177.655,228.613 L177.655,194.408 L170.809,194.408 L170.809,188.702 z" id="el_y9YuzNHLqo5"/>
      <path d="M214.255,205.652 C215.647,205.595 216.639,205.22 217.233,204.524 C217.827,203.829 218.124,202.757 218.124,201.31 L218.124,198.693 C218.124,197.173 217.79,196.059 217.122,195.353 C216.454,194.649 215.368,194.297 213.865,194.297 L203.484,194.297 C201.981,194.297 200.896,194.649 200.228,195.353 C199.56,196.059 199.226,197.173 199.226,198.693 L199.226,201.31 C199.226,202.757 199.527,203.829 200.13,204.524 C200.733,205.22 201.721,205.595 203.094,205.652 z M214.422,223.019 C215.943,223.019 217.038,222.667 217.706,221.961 C218.374,221.256 218.708,220.152 218.708,218.649 L218.708,215.56 C218.708,214.039 218.374,212.934 217.706,212.248 C217.038,211.561 215.943,211.218 214.422,211.218 L202.927,211.218 C201.406,211.218 200.311,211.561 199.643,212.248 C198.975,212.934 198.641,214.039 198.641,215.56 L198.641,218.649 C198.641,220.152 198.975,221.256 199.643,221.961 C200.311,222.667 201.406,223.019 202.927,223.019 z M202.76,228.613 C196.285,228.613 193.047,225.384 193.047,218.927 L193.047,216.923 C193.047,214.437 193.492,212.443 194.383,210.939 C195.274,209.437 196.563,208.435 198.252,207.933 C196.749,207.229 195.603,206.148 194.814,204.691 C194.026,203.235 193.631,201.384 193.631,199.138 L193.631,198.416 C193.631,191.94 196.86,188.702 203.317,188.702 L214.032,188.702 C220.489,188.702 223.718,191.94 223.718,198.416 L223.718,199.138 C223.718,201.384 223.323,203.235 222.535,204.691 C221.746,206.148 220.601,207.229 219.098,207.933 C220.786,208.435 222.076,209.437 222.966,210.939 C223.857,212.443 224.302,214.437 224.302,216.923 L224.302,218.927 C224.302,225.384 221.074,228.613 214.617,228.613 z" id="el_CLY4DFR7RJ4"/>
    </g>
    <path d="M7.713,100.431 C0.681,121.329 -1.583,143.537 1.087,165.425 L1.087,165.425 L31.399,155.088 C29.907,136.859 32.945,118.544 40.241,101.773 L40.241,101.773 C46.518,87.344 55.8,74.42 67.466,63.863 L67.466,63.863 L45.759,40.618 C28.417,57.178 15.36,77.705 7.713,100.431 z" id="el_qUn2frRoRGL"/>
    <path d="M149.108,0 C145.249,0 141.392,0.182 137.551,0.548 L137.551,0.548 L138.905,31.654 C141.755,31.525 144.608,31.474 147.46,31.501 L147.46,31.501 C150.49,31.527 153.52,31.642 156.543,31.843 L156.543,31.843 L161.667,0.647 C157.578,0.224 153.47,0.008 149.359,0 L149.359,0 C149.275,0 149.192,0 149.108,0 z" id="el__tXY_Cff3dC"/>
    <path d="M116.703,3.231 C112.265,4.19 107.883,5.391 103.575,6.826 L103.575,6.826 L110.522,37.342 C113.627,36.278 116.779,35.356 119.969,34.579 L119.969,34.579 C123.77,33.653 127.62,32.934 131.499,32.426 L131.499,32.426 L129.222,1.182 C125.018,1.653 120.839,2.337 116.703,3.231 z" id="el__bT-rzM2GOf"/>
    <path d="M84.888,14.07 C81.086,15.853 77.365,17.805 73.737,19.919 L73.737,19.919 L87.89,48.26 C90.442,46.684 93.044,45.19 95.692,43.78 L95.692,43.78 C98.54,42.263 101.439,40.844 104.383,39.526 L104.383,39.526 L95.522,9.605 C91.918,10.948 88.371,12.438 84.888,14.07 z" id="el_f7AaI0EPLP7"/>
    <path d="M60.057,28.79 C57.083,30.922 54.171,33.138 51.325,35.436 L51.325,35.436 L72.003,60.172 C73.773,58.41 75.616,56.724 77.528,55.119 L77.528,55.119 C79.378,53.565 81.29,52.089 83.261,50.693 L83.261,50.693 L68.006,23.383 C65.312,25.119 62.661,26.921 60.057,28.79 z" id="el_JI2sJkhNqyy"/>
  </g></g></g>
<script>(function(){var a=document.querySelector('#el_xwoPOh4G4'),b=a.querySelectorAll('style'),c=function(d){b.forEach(function(f){var g=f.textContent;g&amp;&amp;(f.textContent=g.replace(/transform-box:[^;\r\n]*/gi,'transform-box: '+d))})};c('initial'),window.requestAnimationFrame(function(){return c('fill-box')})})();</script></svg>